# xmcd
#
# Track frame offsets: 
#        150
#        22473
#        44325
#        67188
#        91248
#        115519
#        139216
#        164246
#        185738
#        205755
#
# Disc length: 3108 seconds
#
# Revision: 0
# Processed by: cddbd v1.5.2PL0 Copyright (c) Steve Scherf et al.
# Submitted via: ExactAudioCopy v1.0b3
#
DISCID=9a0c220a
DTITLE=Nhu Mai, Tuan Vu - Nguoi Quen Ke Nho
DYEAR=1991
DGENRE=
TTITLE0=Nguoi quen ke nho
TTITLE1=Nhu Mai - Nguoi hang xom
TTITLE2=Biet den bao gio
TTITLE3=Nhu Mai - Hoa no ve dem
TTITLE4=Chieu thuong do thi
TTITLE5=Nhu Mai - Nguoi yeu co don
TTITLE6=Cay dan bo quen
TTITLE7=Nhu Mai - Mua mua di qua
TTITLE8=Tuoi muoi ba
TTITLE9=Nhu Mai - Neu hai dua minh
EXTD=
EXTT0=
EXTT1=
EXTT2=
EXTT3=
EXTT4=
EXTT5=
EXTT6=
EXTT7=
EXTT8=
EXTT9=
PLAYORDER=
